<svg xmlns="http://www.w3.org/2000/svg" height="48" width="48"><path d="M24 46Q18.4 46 13.2 42.7Q8 39.4 5 35.15V42H2V30H14V33H7.15Q9.7 36.85 14.425 39.925Q19.15 43 24 43Q27.9 43 31.375 41.5Q34.85 40 37.425 37.425Q40 34.85 41.5 31.375Q43 27.9 43 24H46Q46 28.55 44.275 32.55Q42.55 36.55 39.55 39.55Q36.55 42.55 32.55 44.275Q28.55 46 24 46ZM2 24Q2 19.45 3.725 15.45Q5.45 11.45 8.45 8.45Q11.45 5.45 15.45 3.725Q19.45 2 24 2Q29.6 2 34.8 5.3Q40 8.6 43 12.85V6H46V18H34V15H40.85Q38.3 11.15 33.6 8.075Q28.9 5 24 5Q20.1 5 16.625 6.5Q13.15 8 10.575 10.575Q8 13.15 6.5 16.625Q5 20.1 5 24ZM22.55 38.35H25.3V35.75Q28.35 35.4 30.05 33.875Q31.75 32.35 31.75 29.8Q31.75 27.25 30.3 25.65Q28.85 24.05 25.4 22.6Q22.5 21.4 21.2 20.45Q19.9 19.5 19.9 17.9Q19.9 16.35 21.025 15.45Q22.15 14.55 24.1 14.55Q25.6 14.55 26.7 15.25Q27.8 15.95 28.55 17.35L30.95 16.2Q30.1 14.45 28.7 13.45Q27.3 12.45 25.4 12.25V9.7H22.65V12.25Q20.1 12.6 18.625 14.125Q17.15 15.65 17.15 17.9Q17.15 20.35 18.65 21.8Q20.15 23.25 23.15 24.5Q26.5 25.9 27.75 27.025Q29 28.15 29 29.8Q29 31.4 27.675 32.375Q26.35 33.35 24.35 33.35Q22.4 33.35 20.875 32.25Q19.35 31.15 18.75 29.25L16.2 30.1Q17.25 32.4 18.775 33.725Q20.3 35.05 22.55 35.65Z"/></svg>